<svg class="svg-social" width="175" height="45" viewBox="0 0 175 45" fill="none" xmlns="http://www.w3.org/2000/svg">
<path d="M22.5 0C10.074 0 0 10.0736 0 22.5C0 34.9264 10.074 45 22.5 45C34.926 45 45 34.9264 45 22.5C45 10.0736 34.926 0 22.5 0ZM33.9132 24.9335C34.9619 25.9577 36.0714 26.9217 37.0128 28.0519C37.4299 28.5519 37.823 29.0688 38.1222 29.6503C38.5495 30.4794 38.1637 31.3886 37.4216 31.4379L32.812 31.4369C31.6215 31.5354 30.6741 31.0553 29.8754 30.2414C29.2378 29.5927 28.6462 28.8999 28.0321 28.2292C27.7812 27.9539 27.517 27.6947 27.2021 27.4907C26.5737 27.0819 26.0277 27.2072 25.6677 27.8636C25.3008 28.5316 25.217 29.2719 25.182 30.0153C25.1319 31.1022 24.8041 31.3863 23.7135 31.4374C21.3832 31.5465 19.1721 31.1929 17.117 30.0181C15.3041 28.9818 13.901 27.5193 12.6783 25.8634C10.2973 22.6353 8.47381 19.0924 6.8354 15.4478C6.46665 14.627 6.73642 14.1878 7.64194 14.1707C9.14639 14.1417 10.6508 14.1454 12.1553 14.1694C12.7676 14.179 13.1727 14.5294 13.4079 15.1071C14.2209 17.1074 15.2176 19.0105 16.4665 20.7755C16.7994 21.2455 17.1391 21.7142 17.623 22.0461C18.157 22.4125 18.5639 22.2915 18.8158 21.6953C18.9769 21.3164 19.0464 20.9113 19.0814 20.5053C19.2011 19.1145 19.2153 17.7242 19.0082 16.339C18.8793 15.4722 18.3918 14.9124 17.5277 14.7485C17.0876 14.6652 17.152 14.5022 17.3661 14.2508C17.7376 13.8163 18.0856 13.5474 18.7812 13.5474L23.9893 13.5465C24.8101 13.7076 24.9942 14.0759 25.1056 14.9027L25.1102 20.6903C25.1006 21.0103 25.2709 21.9586 25.8454 22.1681C26.3058 22.32 26.6096 21.9508 26.8849 21.6594C28.1339 20.334 29.0237 18.7697 29.8206 17.1506C30.1723 16.4366 30.4757 15.6978 30.7703 14.9575C30.9895 14.4101 31.3301 14.1408 31.9479 14.15L36.9631 14.156C37.1108 14.156 37.2609 14.1574 37.4073 14.1827C38.2525 14.3273 38.4841 14.6909 38.2226 15.5154C37.811 16.8109 37.0114 17.89 36.2297 18.9718C35.3919 20.1301 34.4983 21.2478 33.6687 22.4111C32.9064 23.4746 32.9667 24.01 33.9132 24.9335Z" fill="#CACACA"/>
<path d="M152.5 0C140.125 0 130 10.1431 130 22.6355C130 33.9307 138.235 43.3057 148.99 45V29.1867H143.275V22.6355H148.99V17.6431C148.99 11.9729 152.342 8.85542 157.495 8.85542C159.947 8.85542 162.512 9.28464 162.512 9.28464V14.8645H159.677C156.887 14.8645 156.01 16.6039 156.01 18.3886V22.6355H162.265L161.252 29.1867H156.01V45C161.312 44.1593 166.14 41.4432 169.622 37.342C173.105 33.2408 175.012 28.0248 175 22.6355C175 10.1431 164.875 0 152.5 0Z" fill="#CACACA"/>
<path d="M83.1172 22.5C83.1172 24.8785 85.0453 26.8066 87.4238 26.8066C89.8024 26.8066 91.7305 24.8785 91.7305 22.5C91.7305 20.1215 89.8024 18.1934 87.4238 18.1934C85.0453 18.1934 83.1172 20.1215 83.1172 22.5Z" fill="#CACACA"/>
<path d="M77.3521 14.8803C77.5591 14.3194 77.8894 13.8116 78.3185 13.3948C78.7353 12.9656 79.2428 12.6354 79.8041 12.4283C80.2593 12.2515 80.9432 12.0411 82.2029 11.9837C83.5655 11.9216 83.9741 11.9082 87.4238 11.9082C90.8738 11.9082 91.2824 11.9212 92.6447 11.9834C93.9044 12.0411 94.5886 12.2515 95.0435 12.4283C95.6048 12.6354 96.1126 12.9656 96.5291 13.3948C96.9582 13.8116 97.2885 14.319 97.4959 14.8803C97.6727 15.3356 97.8831 16.0198 97.9405 17.2795C98.0026 18.6418 98.016 19.0503 98.016 22.5004C98.016 25.9501 98.0026 26.3587 97.9405 27.7213C97.8831 28.981 97.6727 29.6649 97.4959 30.1201C97.2885 30.6814 96.9586 31.1889 96.5294 31.6057C96.1126 32.0348 95.6052 32.3651 95.0438 32.5721C94.5886 32.7493 93.9044 32.9597 92.6447 33.0171C91.2824 33.0792 90.8742 33.0922 87.4241 33.0922C83.9737 33.0922 83.5652 33.0792 82.2032 33.0171C80.9436 32.9597 80.2593 32.7493 79.8041 32.5721C78.6773 32.1375 77.7867 31.2469 77.3521 30.1201C77.1753 29.6649 76.9648 28.981 76.9071 27.7213C76.845 26.3587 76.8319 25.9501 76.8319 22.5004C76.8319 19.0503 76.845 18.6418 76.9071 17.2795C76.9645 16.0198 77.1749 15.3356 77.3521 14.8803ZM87.4238 29.1344C91.0881 29.1344 94.0585 26.1643 94.0585 22.5001C94.0585 18.8358 91.0881 15.8657 87.4238 15.8657C83.7599 15.8657 80.7894 18.8358 80.7894 22.5001C80.7894 26.1643 83.7599 29.1344 87.4238 29.1344ZM80.5271 17.1538C81.3834 17.1538 82.0776 16.4596 82.0776 15.6034C82.0776 14.7471 81.3834 14.0529 80.5271 14.0529C79.6709 14.0529 78.9767 14.7471 78.9767 15.6034C78.977 16.4596 79.6709 17.1538 80.5271 17.1538Z" fill="#CACACA"/>
<path d="M87.6204 0C99.9364 0 109.924 9.98747 109.924 22.3034C109.924 34.6194 99.9364 44.6069 87.6204 44.6069C75.3044 44.6069 65.317 34.6194 65.317 22.3034C65.317 9.98747 75.3044 0 87.6204 0ZM74.8906 27.5836C74.9525 28.9469 75.1693 29.8777 75.4858 30.6924C76.1512 32.4127 77.5111 33.7727 79.2314 34.438C80.0458 34.7545 80.9769 34.971 82.3399 35.0332C83.7057 35.0955 84.1419 35.1105 87.6201 35.1105C91.0985 35.1105 91.5345 35.0955 92.9005 35.0332C94.2635 34.971 95.1946 34.7545 96.009 34.438C96.8639 34.1164 97.6378 33.6124 98.2776 32.9607C98.929 32.3212 99.433 31.547 99.7546 30.6924C100.071 29.878 100.288 28.9469 100.35 27.5839C100.413 26.2178 100.427 25.7815 100.427 22.3034C100.427 18.8253 100.413 18.389 100.35 17.0233C100.288 15.66 100.072 14.7292 99.7553 13.9145C99.4337 13.0599 98.9293 12.2857 98.2776 11.6462C97.6382 10.9945 96.8639 10.4905 96.0094 10.1689C95.1946 9.85236 94.2638 9.63592 92.9005 9.57364C91.5348 9.51136 91.0985 9.49638 87.6204 9.49638C84.1423 9.49638 83.706 9.51136 82.3403 9.57398C80.9769 9.63592 80.0462 9.85236 79.2314 10.1685C78.3769 10.4901 77.6026 10.9945 76.9628 11.6462C76.3114 12.286 75.8071 13.0599 75.4858 13.9145C75.169 14.7292 74.9525 15.66 74.8903 17.0233C74.828 18.389 74.8133 18.8253 74.8133 22.3034C74.8133 25.7815 74.828 26.2178 74.8906 27.5836Z" fill="#CACACA"/>
</svg>
